<svg xmlns="http://www.w3.org/2000/svg" xmlns:xlink="http://www.w3.org/1999/xlink" width="149.64" height="147" preserveAspectRatio="xMidYMid meet" version="1.1" viewBox="165.027 63.609 70.762 69.512"><defs><path id="gRBfsYk6k" d="M235.79 63.61L235.79 133.12L165.03 133.12L165.03 63.61L165.03 63.61L235.79 63.61Z"/><path id="akfSKCGAz" d="M233.64 93.13C233.64 98.07 229.35 102.08 224.07 102.08C218.79 102.08 214.5 98.07 214.5 93.13C214.5 88.19 218.79 84.18 224.07 84.18C229.35 84.18 233.64 88.19 233.64 93.13Z"/><path id="d3QxXjCBsx" d="M165.03 69.89L233.64 69.89L233.64 81.95L165.03 81.95L165.03 69.89Z"/><path id="aCeTiinVs" d="M178.5 84.18L187.5 84.18L187.5 128.54L178.5 128.54L178.5 84.18Z"/><path id="f1ERzsQ5N0" d="M218.93 89.86C218.93 89.86 217.66 89.86 216.09 89.86C214.53 89.86 213.25 89.86 213.25 89.86C213.25 89.86 214.53 89.86 216.09 89.86C217.66 89.86 218.36 89.86 218.93 89.86Z"/><path id="a3BChVfwr" d="M218.93 121.06L218.93 121.06L218.93 133.12L218.93 133.12L218.93 121.06Z"/><path id="eC1RvKmYN" d="M230.63 93.13C230.63 98.07 226.34 102.08 221.06 102.08C215.77 102.08 211.48 98.07 211.48 93.13C211.48 88.19 215.77 84.18 221.06 84.18C226.34 84.18 230.63 88.19 230.63 93.13Z"/><path id="av8aXWLWG" d="M197.3 84.18L206.3 84.18L206.3 128.54L197.3 128.54L197.3 84.18Z"/><path id="b4pYSTcZsx" d="M216.98 126.01L233.64 126.01L216.98 102.97L216.98 126.01Z"/><path id="ahajqzxzM" d="M216.09 127.09L232.76 127.09L216.09 104.04L216.09 127.09Z"/><path id="a6P4wyG1I" d="M165.03 78.19L233.64 78.19L233.64 81.95L165.03 81.95L165.03 78.19Z"/><path id="b368ozHd32" d="M190.5 84.18L187.5 84.18L187.5 128.54L190.5 128.54L190.5 84.18Z"/><path id="c1j8uPqAdV" d="M206.3 84.18L209.3 84.18L209.3 128.54L206.3 128.54L206.3 84.18Z"/></defs><g><g><g><use fill="#2673b8" fill-opacity="1" opacity="1" xlink:href="#gRBfsYk6k"/></g><g><use fill="#fefefe" fill-opacity="1" opacity="1" xlink:href="#akfSKCGAz"/></g><g><use fill="#65cdbf" fill-opacity="1" opacity="1" xlink:href="#d3QxXjCBsx"/></g><g><use fill="#65cdbf" fill-opacity="1" opacity="1" xlink:href="#aCeTiinVs"/></g><g><use fill="#098a3a" fill-opacity="1" opacity="1" xlink:href="#f1ERzsQ5N0"/></g><g><use fill="#230e5f" fill-opacity="1" opacity="1" xlink:href="#a3BChVfwr"/></g><g><use fill="#65cdbf" fill-opacity="1" opacity="1" xlink:href="#eC1RvKmYN"/></g><g><use fill="#65cdbf" fill-opacity="1" opacity="1" xlink:href="#av8aXWLWG"/></g><g><use fill="#fefefe" fill-opacity="1" opacity="1" xlink:href="#b4pYSTcZsx"/><g><use fill-opacity="0" stroke="#000" stroke-opacity="1" stroke-width="0" opacity="1" xlink:href="#b4pYSTcZsx"/></g></g><g><use fill="#65cdbf" fill-opacity="1" opacity="1" xlink:href="#ahajqzxzM"/><g><use fill-opacity="0" stroke="#000" stroke-opacity="1" stroke-width="0" opacity="1" xlink:href="#ahajqzxzM"/></g></g><g><use fill="#fefefe" fill-opacity="1" opacity="1" xlink:href="#a6P4wyG1I"/></g><g><use fill="#fefefe" fill-opacity="1" opacity="1" xlink:href="#b368ozHd32"/></g><g><use fill="#fefefe" fill-opacity="1" opacity="1" xlink:href="#c1j8uPqAdV"/></g></g></g></svg>