<svg xmlns="http://www.w3.org/2000/svg" xmlns:xlink="http://www.w3.org/1999/xlink" width="404.44" height="142" preserveAspectRatio="xMidYMid meet" version="1.1" viewBox="170.376 64.369 216.288 75.94"><defs><path id="bOyYJ2gN4" d="M170.38 64.37L386.66 64.37L386.66 140.31L170.38 140.31L170.38 64.37Z"/><path id="b4mgZYSQ9" d="M243.42 94.63C243.42 99.57 239.13 103.58 233.84 103.58C228.56 103.58 224.27 99.57 224.27 94.63C224.27 89.7 228.56 85.69 233.84 85.69C239.13 85.69 243.42 89.7 243.42 94.63Z"/><path id="bAhxCL0hq" d="M174.8 73.63L383.66 73.63L383.66 82.85L174.8 82.85L174.8 73.63Z"/><path id="btjCMAtb0" d="M188.28 85.69L197.28 85.69L197.28 130.05L188.28 130.05L188.28 85.69Z"/><path id="f2o12w4TVO" d="M228.7 91.36C228.7 91.36 227.43 91.36 225.87 91.36C224.3 91.36 223.03 91.36 223.03 91.36C223.03 91.36 224.3 91.36 225.87 91.36C227.43 91.36 228.14 91.36 228.7 91.36Z"/><path id="bapWaMtQV" d="M240.4 94.63C240.4 99.57 236.11 103.58 230.83 103.58C225.55 103.58 221.26 99.57 221.26 94.63C221.26 89.7 225.55 85.69 230.83 85.69C236.11 85.69 240.4 89.7 240.4 94.63Z"/><path id="d4JISIETYz" d="M228.7 122.57L228.7 122.57L228.7 134.62L228.7 134.62L228.7 122.57Z"/><path id="c1khNxgGS" d="M207.07 85.69L216.07 85.69L216.07 130.05L207.07 130.05L207.07 85.69Z"/><path id="c56p3rPXvr" d="M226.75 126.63L243.42 126.63L226.75 103.58L226.75 126.63Z"/><path id="cCF6KBBYQ" d="M225.87 128.6L242.53 128.6L225.87 105.55L225.87 128.6Z"/><path id="a2CYPGA2B" d="M285 85.69L294 85.69L294 126.94L285 126.94L285 85.69Z"/><path id="aD89MczCx" d="M303.86 85.33L312.86 85.33L312.86 126.58L303.86 126.58L303.86 85.33Z"/><path id="f17SUP8V05" d="M328.56 85.33L337.56 85.33L337.56 126.58L328.56 126.58L328.56 85.33Z"/><path id="a2dfOMhS5D" d="M342.25 90.99L348.89 82.85L364.35 105.53L357.71 113.67L342.25 90.99Z"/><path id="c2XgcjACVp" d="M318.04 100.4L327.04 100.4L327.04 109.4L318.04 109.4L318.04 100.4Z"/><path id="ar7bqRP2S" d="M361.51 126.97L353.3 123.29L362.7 85.69L370.91 89.37L361.51 126.97Z"/><path id="d5sj8dzUyx" d="M342.25 93.12L348.89 84.99L364.35 107.67L357.71 115.8L342.25 93.12Z"/><path id="c23EMRwBW0" d="M359.78 126.18L351.57 122.49L360.97 84.89L369.18 88.58L359.78 126.18Z"/><path id="b1RLx9NkkZ" d="M174.8 70.63L383.66 70.63L383.66 73.63L174.8 73.63L174.8 70.63Z"/><path id="haMWtoFnW" d="M200.28 85.69L197.28 85.69L197.28 130.05L200.28 130.05L200.28 85.69Z"/><path id="c16qBh6hKD" d="M216.07 85.69L219.07 85.69L219.07 130.05L216.07 130.05L216.07 85.69Z"/><path id="b1jgQ9Zuz4" d="M294 85.69L297 85.69L297 126.94L294 126.94L294 85.69Z"/><path id="auqWI2OI0" d="M312.86 85.32L315.86 85.32L315.86 126.57L312.86 126.57L312.86 85.32Z"/><path id="cgrQTUpyj" d="M337.56 85.33L340.56 85.33L340.56 126.58L337.56 126.58L337.56 85.33Z"/><path id="aageB6zs8" d="M252.05 86.16L261.05 86.16L261.05 118.52L252.05 118.52L252.05 86.16Z"/><path id="cwSeBBDJS" d="M318.04 109.56L327.04 109.56L327.04 112.56L318.04 112.56L318.04 109.56Z"/><path id="a2DF6WQ5hX" d="M270.5 86.59L279.5 86.59L279.5 127.83L270.5 127.83L270.5 86.59Z"/><path id="a20JpQCg9w" d="M249.55 86.59L258.55 86.59L258.55 118.95L249.55 118.95L249.55 86.59Z"/><path id="cgSRc9T4H" d="M249.55 118.95L277 118.95L277 127.95L249.55 127.95L249.55 118.95Z"/><path id="d2OGeNC6H" d="M268 86.59L277 86.59L277 118.95L268 118.95L268 86.59Z"/><path id="c9n5Jm4CDE" d="M249.55 117.07L277 117.07L277 126.29L249.55 126.29L249.55 117.07Z"/></defs><g><g><g><use fill="#243665" fill-opacity="1" opacity="1" xlink:href="#bOyYJ2gN4"/></g><g><use fill="#fff" fill-opacity="1" opacity="1" xlink:href="#b4mgZYSQ9"/></g><g><use fill="#8bd8bd" fill-opacity="1" opacity="1" xlink:href="#bAhxCL0hq"/></g><g><use fill="#8bd8bd" fill-opacity="1" opacity="1" xlink:href="#btjCMAtb0"/></g><g><use fill="#098a3a" fill-opacity="1" opacity="1" xlink:href="#f2o12w4TVO"/></g><g><use fill="#8bd8bd" fill-opacity="1" opacity="1" xlink:href="#bapWaMtQV"/></g><g><use fill="#230e5f" fill-opacity="1" opacity="1" xlink:href="#d4JISIETYz"/></g><g><use fill="#8bd8bd" fill-opacity="1" opacity="1" xlink:href="#c1khNxgGS"/></g><g><use fill="#fff" fill-opacity="1" opacity="1" xlink:href="#c56p3rPXvr"/><g><use fill-opacity="0" stroke="#000" stroke-opacity="1" stroke-width="0" opacity="1" xlink:href="#c56p3rPXvr"/></g></g><g><use fill="#8bd8bd" fill-opacity="1" opacity="1" xlink:href="#cCF6KBBYQ"/><g><use fill-opacity="0" stroke="#000" stroke-opacity="1" stroke-width="0" opacity="1" xlink:href="#cCF6KBBYQ"/></g></g><g><use fill="#8bd8bd" fill-opacity="1" opacity="1" xlink:href="#a2CYPGA2B"/></g><g><use fill="#8bd8bd" fill-opacity="1" opacity="1" xlink:href="#aD89MczCx"/></g><g><use fill="#8bd8bd" fill-opacity="1" opacity="1" xlink:href="#f17SUP8V05"/></g><g><use fill="#fefefe" fill-opacity="1" opacity="1" xlink:href="#a2dfOMhS5D"/></g><g><use fill="#8bd8bd" fill-opacity="1" opacity="1" xlink:href="#c2XgcjACVp"/></g><g><use fill="#fefefe" fill-opacity="1" opacity="1" xlink:href="#ar7bqRP2S"/></g><g><use fill="#8bd8bd" fill-opacity="1" opacity="1" xlink:href="#d5sj8dzUyx"/></g><g><use fill="#8bd8bd" fill-opacity="1" opacity="1" xlink:href="#c23EMRwBW0"/></g><g><use fill="#fefefe" fill-opacity="1" opacity="1" xlink:href="#b1RLx9NkkZ"/></g><g><use fill="#fff" fill-opacity="1" opacity="1" xlink:href="#haMWtoFnW"/></g><g><use fill="#fff" fill-opacity="1" opacity="1" xlink:href="#c16qBh6hKD"/></g><g><use fill="#fefefe" fill-opacity="1" opacity="1" xlink:href="#b1jgQ9Zuz4"/></g><g><use fill="#fefefe" fill-opacity="1" opacity="1" xlink:href="#auqWI2OI0"/></g><g><use fill="#fefefe" fill-opacity="1" opacity="1" xlink:href="#cgrQTUpyj"/></g><g><use fill="#fefefe" fill-opacity="1" opacity="1" xlink:href="#aageB6zs8"/></g><g><use fill="#fefefe" fill-opacity="1" opacity="1" xlink:href="#cwSeBBDJS"/></g><g><use fill="#fff" fill-opacity="1" opacity="1" xlink:href="#a2DF6WQ5hX"/></g><g><use fill="#8bd8bd" fill-opacity="1" opacity="1" xlink:href="#a20JpQCg9w"/></g><g><use fill="#fff" fill-opacity="1" opacity="1" xlink:href="#cgSRc9T4H"/></g><g><use fill="#8bd8bd" fill-opacity="1" opacity="1" xlink:href="#d2OGeNC6H"/></g><g><use fill="#8bd8bd" fill-opacity="1" opacity="1" xlink:href="#c9n5Jm4CDE"/></g></g></g></svg>