<svg xmlns="http://www.w3.org/2000/svg" xmlns:xlink="http://www.w3.org/1999/xlink" width="175.09" height="172" preserveAspectRatio="xMidYMid meet" version="1.1" viewBox="121.418 63.609 70.762 69.512"><defs><path id="b18qtBr4QG" d="M121.42 63.61L192.18 63.61L192.18 133.12L121.42 133.12L121.42 63.61Z"/><path id="f1flvn6oPL" d="M190.04 93.13C190.04 98.07 185.75 102.08 180.46 102.08C175.18 102.08 170.89 98.07 170.89 93.13C170.89 88.19 175.18 84.18 180.46 84.18C185.75 84.18 190.04 88.19 190.04 93.13Z"/><path id="b138c4TbA6" d="M121.42 69.89L190.04 69.89L190.04 81.95L121.42 81.95L121.42 69.89Z"/><path id="bKzE7CDJZ" d="M134.89 84.18L143.89 84.18L143.89 128.54L134.89 128.54L134.89 84.18Z"/><path id="a2JCWyevWk" d="M175.32 89.86C175.32 89.86 174.05 89.86 172.48 89.86C170.92 89.86 169.65 89.86 169.65 89.86C169.65 89.86 170.92 89.86 172.48 89.86C174.05 89.86 174.75 89.86 175.32 89.86Z"/><path id="a1XxkE1pF5" d="M175.32 121.06L175.32 121.06L175.32 133.12L175.32 133.12L175.32 121.06Z"/><path id="h8BYHaRFe" d="M187.02 93.13C187.02 98.07 182.73 102.08 177.45 102.08C172.16 102.08 167.87 98.07 167.87 93.13C167.87 88.19 172.16 84.18 177.45 84.18C182.73 84.18 187.02 88.19 187.02 93.13Z"/><path id="d1AePnv9PU" d="M153.69 84.18L162.69 84.18L162.69 128.54L153.69 128.54L153.69 84.18Z"/><path id="acaYuw2w1" d="M173.37 126.01L190.04 126.01L173.37 102.97L173.37 126.01Z"/><path id="a1I4nPq04C" d="M172.48 127.09L189.15 127.09L172.48 104.04L172.48 127.09Z"/><path id="bl0pQZ7bv" d="M121.42 78.19L190.04 78.19L190.04 81.95L121.42 81.95L121.42 78.19Z"/><path id="d1EkggKaG2" d="M146.89 84.18L143.89 84.18L143.89 128.54L146.89 128.54L146.89 84.18Z"/><path id="f22shHTdWQ" d="M161.19 84.18L164.19 84.18L164.19 128.54L161.19 128.54L161.19 84.18Z"/></defs><g><g><g><use fill="#243665" fill-opacity="1" opacity="1" xlink:href="#b18qtBr4QG"/></g><g><use fill="#fefefe" fill-opacity="1" opacity="1" xlink:href="#f1flvn6oPL"/></g><g><use fill="#8bd8bd" fill-opacity="1" opacity="1" xlink:href="#b138c4TbA6"/></g><g><use fill="#8bd8bd" fill-opacity="1" opacity="1" xlink:href="#bKzE7CDJZ"/></g><g><use fill="#098a3a" fill-opacity="1" opacity="1" xlink:href="#a2JCWyevWk"/></g><g><use fill="#230e5f" fill-opacity="1" opacity="1" xlink:href="#a1XxkE1pF5"/></g><g><use fill="#8bd8bd" fill-opacity="1" opacity="1" xlink:href="#h8BYHaRFe"/></g><g><use fill="#8bd8bd" fill-opacity="1" opacity="1" xlink:href="#d1AePnv9PU"/></g><g><use fill="#fefefe" fill-opacity="1" opacity="1" xlink:href="#acaYuw2w1"/><g><use fill-opacity="0" stroke="#000" stroke-opacity="1" stroke-width="0" opacity="1" xlink:href="#acaYuw2w1"/></g></g><g><use fill="#8bd8bd" fill-opacity="1" opacity="1" xlink:href="#a1I4nPq04C"/><g><use fill-opacity="0" stroke="#000" stroke-opacity="1" stroke-width="0" opacity="1" xlink:href="#a1I4nPq04C"/></g></g><g><use fill="#fefefe" fill-opacity="1" opacity="1" xlink:href="#bl0pQZ7bv"/></g><g><use fill="#fefefe" fill-opacity="1" opacity="1" xlink:href="#d1EkggKaG2"/></g><g><use fill="#fefefe" fill-opacity="1" opacity="1" xlink:href="#f22shHTdWQ"/></g></g></g></svg>